<svg width="52" height="209" viewBox="0 0 52 209" fill="none" xmlns="http://www.w3.org/2000/svg">
<rect x="49" width="3" height="209" rx="1.5" fill="#FCBD01" fill-opacity="0.2"/>
<rect x="49" width="3" height="47" rx="1.5" fill="#EE3C4D"/>
<path d="M16.53 24.23C16.53 26.11 16.325 27.74 15.915 29.12C15.515 30.5 14.96 31.645 14.25 32.555C13.55 33.455 12.72 34.125 11.76 34.565C10.81 35.005 9.785 35.225 8.685 35.225C7.585 35.225 6.555 35.005 5.595 34.565C4.645 34.125 3.82 33.455 3.12 32.555C2.42 31.645 1.87 30.5 1.47 29.12C1.07 27.74 0.87 26.11 0.87 24.23C0.87 22.35 1.07 20.72 1.47 19.34C1.87 17.95 2.42 16.805 3.12 15.905C3.82 14.995 4.645 14.32 5.595 13.88C6.555 13.44 7.585 13.22 8.685 13.22C9.785 13.22 10.81 13.44 11.76 13.88C12.72 14.32 13.55 14.995 14.25 15.905C14.96 16.805 15.515 17.95 15.915 19.34C16.325 20.72 16.53 22.35 16.53 24.23ZM13.5 24.23C13.5 22.61 13.365 21.255 13.095 20.165C12.835 19.075 12.48 18.2 12.03 17.54C11.59 16.87 11.08 16.395 10.5 16.115C9.92 15.835 9.315 15.695 8.685 15.695C8.055 15.695 7.45 15.835 6.87 16.115C6.29 16.395 5.775 16.87 5.325 17.54C4.885 18.2 4.535 19.075 4.275 20.165C4.015 21.255 3.885 22.61 3.885 24.23C3.885 25.85 4.015 27.205 4.275 28.295C4.535 29.385 4.885 30.26 5.325 30.92C5.775 31.58 6.29 32.05 6.87 32.33C7.45 32.61 8.055 32.75 8.685 32.75C9.315 32.75 9.92 32.61 10.5 32.33C11.08 32.05 11.59 31.58 12.03 30.92C12.48 30.26 12.835 29.385 13.095 28.295C13.365 27.205 13.5 25.85 13.5 24.23ZM32.7323 32.765V35H21.0923V32.765H25.6523V18.65C25.6523 18.2 25.6673 17.735 25.6973 17.255L22.0373 20.36C21.8973 20.47 21.7573 20.54 21.6173 20.57C21.4773 20.6 21.3423 20.605 21.2123 20.585C21.0923 20.565 20.9823 20.525 20.8823 20.465C20.7923 20.395 20.7173 20.325 20.6573 20.255L19.7423 18.98L26.1923 13.415H28.5773V32.765H32.7323Z" fill="#EE3C4D"/>
</svg>
