<svg width="116" height="79" viewBox="0 0 116 79" fill="none" xmlns="http://www.w3.org/2000/svg">
<g opacity="0.77">
<path d="M22.2075 50.1975C22.6425 50.1975 22.9875 50.325 23.2425 50.58C23.4975 50.835 23.625 51.165 23.625 51.57V54H2.115V52.6275C2.115 52.3425 2.175 52.05 2.295 51.75C2.415 51.45 2.6025 51.1725 2.8575 50.9175L13.185 40.545C14.04 39.675 14.82 38.8425 15.525 38.0475C16.23 37.2375 16.83 36.4275 17.325 35.6175C17.82 34.8075 18.2025 33.99 18.4725 33.165C18.7425 32.325 18.8775 31.4325 18.8775 30.4875C18.8775 29.5425 18.7275 28.7175 18.4275 28.0125C18.1275 27.2925 17.715 26.7 17.19 26.235C16.68 25.77 16.0725 25.425 15.3675 25.2C14.6625 24.96 13.905 24.84 13.095 24.84C12.27 24.84 11.5125 24.96 10.8225 25.2C10.1325 25.44 9.5175 25.7775 8.9775 26.2125C8.4525 26.6325 8.01 27.135 7.65 27.72C7.29 28.305 7.035 28.95 6.885 29.655C6.705 30.18 6.4575 30.5325 6.1425 30.7125C5.8425 30.8775 5.415 30.9225 4.86 30.8475L2.7675 30.4875C2.9775 29.0175 3.3825 27.72 3.9825 26.595C4.5975 25.455 5.3625 24.5025 6.2775 23.7375C7.2075 22.9725 8.265 22.395 9.45 22.005C10.635 21.6 11.9175 21.3975 13.2975 21.3975C14.6625 21.3975 15.9375 21.6 17.1225 22.005C18.3075 22.41 19.335 23.0025 20.205 23.7825C21.075 24.5475 21.7575 25.485 22.2525 26.595C22.7475 27.705 22.995 28.965 22.995 30.375C22.995 31.575 22.815 32.6925 22.455 33.7275C22.095 34.7475 21.6075 35.7225 20.9925 36.6525C20.3775 37.5825 19.665 38.49 18.855 39.375C18.06 40.26 17.2125 41.1525 16.3125 42.0525L7.8075 50.7375C8.4075 50.5725 9.015 50.445 9.63 50.355C10.245 50.25 10.8375 50.1975 11.4075 50.1975H22.2075ZM34.2485 33.93C35.9285 33.57 37.4735 33.39 38.8835 33.39C40.5635 33.39 42.0485 33.6375 43.3385 34.1325C44.6285 34.6275 45.701 35.31 46.556 36.18C47.426 37.05 48.0785 38.0775 48.5135 39.2625C48.9635 40.4475 49.1885 41.7375 49.1885 43.1325C49.1885 44.8425 48.8885 46.3875 48.2885 47.7675C47.7035 49.1475 46.886 50.3325 45.836 51.3225C44.801 52.2975 43.5785 53.0475 42.1685 53.5725C40.7585 54.0975 39.236 54.36 37.601 54.36C36.656 54.36 35.7485 54.2625 34.8785 54.0675C34.0085 53.8875 33.191 53.64 32.426 53.325C31.676 53.01 30.9785 52.65 30.3335 52.245C29.6885 51.84 29.1185 51.4125 28.6235 50.9625L29.861 49.2525C30.131 48.8625 30.4835 48.6675 30.9185 48.6675C31.2185 48.6675 31.556 48.7875 31.931 49.0275C32.306 49.2525 32.7635 49.5075 33.3035 49.7925C33.8435 50.0775 34.4735 50.34 35.1935 50.58C35.9285 50.805 36.7985 50.9175 37.8035 50.9175C38.9285 50.9175 39.941 50.7375 40.841 50.3775C41.741 50.0175 42.5135 49.5075 43.1585 48.8475C43.8035 48.1725 44.2985 47.37 44.6435 46.44C44.9885 45.51 45.161 44.4675 45.161 43.3125C45.161 42.3075 45.011 41.4 44.711 40.59C44.426 39.78 43.9835 39.09 43.3835 38.52C42.7985 37.95 42.0635 37.5075 41.1785 37.1925C40.2935 36.8775 39.2585 36.72 38.0735 36.72C37.2635 36.72 36.416 36.7875 35.531 36.9225C34.661 37.0575 33.7685 37.275 32.8535 37.575L30.3335 36.8325L32.921 21.7575H48.1985V23.5125C48.1985 24.0825 48.0185 24.555 47.6585 24.93C47.3135 25.29 46.7135 25.47 45.8585 25.47H35.7335L34.2485 33.93ZM68.452 29.5425C68.452 30.8025 68.257 31.935 67.867 32.94C67.477 33.93 66.952 34.77 66.292 35.46C65.647 36.135 64.8895 36.6525 64.0195 37.0125C63.1645 37.3725 62.257 37.5525 61.297 37.5525C60.292 37.5525 59.3545 37.3725 58.4845 37.0125C57.6145 36.6525 56.857 36.135 56.212 35.46C55.582 34.77 55.087 33.93 54.727 32.94C54.367 31.935 54.187 30.8025 54.187 29.5425C54.187 28.2525 54.367 27.105 54.727 26.1C55.087 25.095 55.582 24.2475 56.212 23.5575C56.857 22.8675 57.6145 22.3425 58.4845 21.9825C59.3545 21.6225 60.292 21.4425 61.297 21.4425C62.317 21.4425 63.262 21.6225 64.132 21.9825C65.002 22.3425 65.7595 22.8675 66.4045 23.5575C67.0495 24.2475 67.552 25.095 67.912 26.1C68.272 27.105 68.452 28.2525 68.452 29.5425ZM65.347 29.5425C65.347 28.5525 65.242 27.7125 65.032 27.0225C64.822 26.3325 64.5295 25.77 64.1545 25.335C63.7945 24.885 63.367 24.5625 62.872 24.3675C62.377 24.1725 61.852 24.075 61.297 24.075C60.742 24.075 60.2245 24.1725 59.7445 24.3675C59.2645 24.5625 58.8445 24.885 58.4845 25.335C58.1245 25.77 57.8395 26.3325 57.6295 27.0225C57.4195 27.7125 57.3145 28.5525 57.3145 29.5425C57.3145 30.5175 57.4195 31.35 57.6295 32.04C57.8395 32.715 58.1245 33.27 58.4845 33.705C58.8445 34.125 59.2645 34.4325 59.7445 34.6275C60.2245 34.8075 60.742 34.8975 61.297 34.8975C61.852 34.8975 62.377 34.8075 62.872 34.6275C63.367 34.4325 63.7945 34.125 64.1545 33.705C64.5295 33.27 64.822 32.715 65.032 32.04C65.242 31.35 65.347 30.5175 65.347 29.5425ZM79.8595 22.4325C80.0095 22.2525 80.182 22.095 80.377 21.96C80.587 21.825 80.8645 21.7575 81.2095 21.7575H84.112L60.532 53.3475C60.397 53.5425 60.2245 53.7 60.0145 53.82C59.8045 53.94 59.5495 54 59.2495 54H56.302L79.8595 22.4325ZM86.2945 46.395C86.2945 47.655 86.0995 48.78 85.7095 49.77C85.3195 50.76 84.7945 51.6 84.1345 52.29C83.4895 52.965 82.732 53.4825 81.862 53.8425C81.007 54.2025 80.0995 54.3825 79.1395 54.3825C78.1195 54.3825 77.1745 54.2025 76.3045 53.8425C75.4495 53.4825 74.6995 52.965 74.0545 52.29C73.4245 51.6 72.9295 50.76 72.5695 49.77C72.2095 48.78 72.0295 47.655 72.0295 46.395C72.0295 45.105 72.2095 43.9575 72.5695 42.9525C72.9295 41.9325 73.4245 41.0775 74.0545 40.3875C74.6995 39.6975 75.4495 39.1725 76.3045 38.8125C77.1745 38.4525 78.1195 38.2725 79.1395 38.2725C80.1445 38.2725 81.082 38.4525 81.952 38.8125C82.837 39.1725 83.5945 39.6975 84.2245 40.3875C84.8695 41.0775 85.372 41.9325 85.732 42.9525C86.107 43.9575 86.2945 45.105 86.2945 46.395ZM83.1895 46.395C83.1895 45.405 83.0845 44.565 82.8745 43.875C82.6645 43.17 82.372 42.6 81.997 42.165C81.637 41.73 81.2095 41.415 80.7145 41.22C80.2195 41.025 79.6945 40.9275 79.1395 40.9275C78.5845 40.9275 78.0595 41.025 77.5645 41.22C77.0845 41.415 76.6645 41.73 76.3045 42.165C75.9445 42.6 75.6595 43.17 75.4495 43.875C75.2545 44.565 75.157 45.405 75.157 46.395C75.157 47.37 75.2545 48.195 75.4495 48.87C75.6595 49.545 75.9445 50.1 76.3045 50.535C76.6645 50.955 77.0845 51.2625 77.5645 51.4575C78.0595 51.6375 78.5845 51.7275 79.1395 51.7275C79.6945 51.7275 80.2195 51.6375 80.7145 51.4575C81.2095 51.2625 81.637 50.955 81.997 50.535C82.372 50.1 82.6645 49.545 82.8745 48.87C83.0845 48.195 83.1895 47.37 83.1895 46.395ZM9.042 69.704C9.042 70.348 8.94 70.94 8.736 71.48C8.532 72.016 8.244 72.478 7.872 72.866C7.5 73.254 7.052 73.556 6.528 73.772C6.008 73.984 5.432 74.09 4.8 74.09C4.168 74.09 3.592 73.984 3.072 73.772C2.552 73.556 2.106 73.254 1.734 72.866C1.362 72.478 1.074 72.016 0.87 71.48C0.666 70.94 0.564 70.348 0.564 69.704C0.564 69.06 0.666 68.47 0.87 67.934C1.074 67.394 1.362 66.93 1.734 66.542C2.106 66.15 2.552 65.846 3.072 65.63C3.592 65.414 4.168 65.306 4.8 65.306C5.432 65.306 6.008 65.414 6.528 65.63C7.052 65.846 7.5 66.15 7.872 66.542C8.244 66.93 8.532 67.394 8.736 67.934C8.94 68.47 9.042 69.06 9.042 69.704ZM7.848 69.704C7.848 69.176 7.776 68.702 7.632 68.282C7.488 67.862 7.284 67.508 7.02 67.22C6.756 66.928 6.436 66.704 6.06 66.548C5.684 66.392 5.264 66.314 4.8 66.314C4.34 66.314 3.922 66.392 3.546 66.548C3.17 66.704 2.848 66.928 2.58 67.22C2.316 67.508 2.112 67.862 1.968 68.282C1.824 68.702 1.752 69.176 1.752 69.704C1.752 70.232 1.824 70.706 1.968 71.126C2.112 71.542 2.316 71.896 2.58 72.188C2.848 72.476 3.17 72.698 3.546 72.854C3.922 73.006 4.34 73.082 4.8 73.082C5.264 73.082 5.684 73.006 6.06 72.854C6.436 72.698 6.756 72.476 7.02 72.188C7.284 71.896 7.488 71.542 7.632 71.126C7.776 70.706 7.848 70.232 7.848 69.704ZM10.8045 74V68.834L10.1325 68.756C10.0485 68.736 9.9785 68.706 9.9225 68.666C9.8705 68.622 9.8445 68.56 9.8445 68.48V68.042H10.8045V67.544C10.8045 67.196 10.8525 66.888 10.9485 66.62C11.0485 66.348 11.1885 66.12 11.3685 65.936C11.5525 65.748 11.7725 65.606 12.0285 65.51C12.2845 65.414 12.5725 65.366 12.8925 65.366C13.1645 65.366 13.4145 65.406 13.6425 65.486L13.6185 66.026C13.6105 66.122 13.5565 66.174 13.4565 66.182C13.3605 66.19 13.2305 66.194 13.0665 66.194C12.8825 66.194 12.7145 66.218 12.5625 66.266C12.4145 66.31 12.2865 66.386 12.1785 66.494C12.0705 66.602 11.9865 66.746 11.9265 66.926C11.8705 67.102 11.8425 67.32 11.8425 67.58V68.042H14.5845V67.388C14.5845 67.04 14.6325 66.732 14.7285 66.464C14.8285 66.192 14.9685 65.964 15.1485 65.78C15.3325 65.592 15.5525 65.45 15.8085 65.354C16.0645 65.258 16.3525 65.21 16.6725 65.21C16.9405 65.21 17.1905 65.25 17.4225 65.33L17.3985 65.864C17.3905 65.96 17.3365 66.012 17.2365 66.02C17.1405 66.028 17.0105 66.032 16.8465 66.032C16.6625 66.032 16.4945 66.056 16.3425 66.104C16.1945 66.152 16.0665 66.23 15.9585 66.338C15.8505 66.446 15.7665 66.588 15.7065 66.764C15.6505 66.94 15.6225 67.158 15.6225 67.418V68.042H17.3745V68.816H15.6585V74H14.5845V68.816H11.8785V74H10.8045ZM22.6526 66.35V69.356H26.1866V70.304H22.6526V74H21.4886V65.402H26.7866V66.35H22.6526ZM31.5624 70.298C31.5624 70.05 31.5264 69.824 31.4544 69.62C31.3864 69.412 31.2844 69.234 31.1484 69.086C31.0164 68.934 30.8544 68.818 30.6624 68.738C30.4704 68.654 30.2524 68.612 30.0084 68.612C29.4964 68.612 29.0904 68.762 28.7904 69.062C28.4944 69.358 28.3104 69.77 28.2384 70.298H31.5624ZM32.4264 73.148C32.2944 73.308 32.1364 73.448 31.9524 73.568C31.7684 73.684 31.5704 73.78 31.3584 73.856C31.1504 73.932 30.9344 73.988 30.7104 74.024C30.4864 74.064 30.2644 74.084 30.0444 74.084C29.6244 74.084 29.2364 74.014 28.8804 73.874C28.5284 73.73 28.2224 73.522 27.9624 73.25C27.7064 72.974 27.5064 72.634 27.3624 72.23C27.2184 71.826 27.1464 71.362 27.1464 70.838C27.1464 70.414 27.2104 70.018 27.3384 69.65C27.4704 69.282 27.6584 68.964 27.9024 68.696C28.1464 68.424 28.4444 68.212 28.7964 68.06C29.1484 67.904 29.5444 67.826 29.9844 67.826C30.3484 67.826 30.6844 67.888 30.9924 68.012C31.3044 68.132 31.5724 68.308 31.7964 68.54C32.0244 68.768 32.2024 69.052 32.3304 69.392C32.4584 69.728 32.5224 70.112 32.5224 70.544C32.5224 70.712 32.5044 70.824 32.4684 70.88C32.4324 70.936 32.3644 70.964 32.2644 70.964H28.2024C28.2144 71.348 28.2664 71.682 28.3584 71.966C28.4544 72.25 28.5864 72.488 28.7544 72.68C28.9224 72.868 29.1224 73.01 29.3544 73.106C29.5864 73.198 29.8464 73.244 30.1344 73.244C30.4024 73.244 30.6324 73.214 30.8244 73.154C31.0204 73.09 31.1884 73.022 31.3284 72.95C31.4684 72.878 31.5844 72.812 31.6764 72.752C31.7724 72.688 31.8544 72.656 31.9224 72.656C32.0104 72.656 32.0784 72.69 32.1264 72.758L32.4264 73.148ZM37.1283 71.264C36.6363 71.28 36.2163 71.32 35.8683 71.384C35.5243 71.444 35.2423 71.524 35.0223 71.624C34.8063 71.724 34.6483 71.842 34.5483 71.978C34.4523 72.114 34.4043 72.266 34.4043 72.434C34.4043 72.594 34.4303 72.732 34.4823 72.848C34.5343 72.964 34.6043 73.06 34.6923 73.136C34.7843 73.208 34.8903 73.262 35.0103 73.298C35.1343 73.33 35.2663 73.346 35.4063 73.346C35.5943 73.346 35.7663 73.328 35.9223 73.292C36.0783 73.252 36.2243 73.196 36.3603 73.124C36.5003 73.052 36.6323 72.966 36.7563 72.866C36.8843 72.766 37.0083 72.652 37.1283 72.524V71.264ZM33.6783 68.78C34.0143 68.456 34.3763 68.214 34.7643 68.054C35.1523 67.894 35.5823 67.814 36.0543 67.814C36.3943 67.814 36.6963 67.87 36.9603 67.982C37.2243 68.094 37.4463 68.25 37.6263 68.45C37.8063 68.65 37.9423 68.892 38.0343 69.176C38.1263 69.46 38.1723 69.772 38.1723 70.112V74H37.6983C37.5943 74 37.5143 73.984 37.4583 73.952C37.4023 73.916 37.3583 73.848 37.3263 73.748L37.2063 73.172C37.0463 73.32 36.8903 73.452 36.7383 73.568C36.5863 73.68 36.4263 73.776 36.2583 73.856C36.0903 73.932 35.9103 73.99 35.7183 74.03C35.5303 74.074 35.3203 74.096 35.0883 74.096C34.8523 74.096 34.6303 74.064 34.4223 74C34.2143 73.932 34.0323 73.832 33.8763 73.7C33.7243 73.568 33.6023 73.402 33.5103 73.202C33.4223 72.998 33.3783 72.758 33.3783 72.482C33.3783 72.242 33.4443 72.012 33.5763 71.792C33.7083 71.568 33.9223 71.37 34.2183 71.198C34.5143 71.026 34.9003 70.886 35.3763 70.778C35.8523 70.666 36.4363 70.602 37.1283 70.586V70.112C37.1283 69.64 37.0263 69.284 36.8223 69.044C36.6183 68.8 36.3203 68.678 35.9283 68.678C35.6643 68.678 35.4423 68.712 35.2623 68.78C35.0863 68.844 34.9323 68.918 34.8003 69.002C34.6723 69.082 34.5603 69.156 34.4643 69.224C34.3723 69.288 34.2803 69.32 34.1883 69.32C34.1163 69.32 34.0543 69.302 34.0023 69.266C33.9503 69.226 33.9063 69.178 33.8703 69.122L33.6783 68.78ZM41.5831 74.096C41.1031 74.096 40.7331 73.962 40.4731 73.694C40.2171 73.426 40.0891 73.04 40.0891 72.536V68.816H39.3571C39.2931 68.816 39.2391 68.798 39.1951 68.762C39.1511 68.722 39.1291 68.662 39.1291 68.582V68.156L40.1251 68.03L40.3711 66.152C40.3831 66.092 40.4091 66.044 40.4491 66.008C40.4931 65.968 40.5491 65.948 40.6171 65.948H41.1571V68.042H42.9151V68.816H41.1571V72.464C41.1571 72.72 41.2191 72.91 41.3431 73.034C41.4671 73.158 41.6271 73.22 41.8231 73.22C41.9351 73.22 42.0311 73.206 42.1111 73.178C42.1951 73.146 42.2671 73.112 42.3271 73.076C42.3871 73.04 42.4371 73.008 42.4771 72.98C42.5211 72.948 42.5591 72.932 42.5911 72.932C42.6471 72.932 42.6971 72.966 42.7411 73.034L43.0531 73.544C42.8691 73.716 42.6471 73.852 42.3871 73.952C42.1271 74.048 41.8591 74.096 41.5831 74.096ZM49.0159 67.922V74H48.3799C48.2279 74 48.1319 73.926 48.0919 73.778L48.0079 73.124C47.7439 73.416 47.4479 73.652 47.1199 73.832C46.7919 74.008 46.4159 74.096 45.9919 74.096C45.6599 74.096 45.3659 74.042 45.1099 73.934C44.8579 73.822 44.6459 73.666 44.4739 73.466C44.3019 73.266 44.1719 73.024 44.0839 72.74C43.9999 72.456 43.9579 72.142 43.9579 71.798V67.922H45.0259V71.798C45.0259 72.258 45.1299 72.614 45.3379 72.866C45.5499 73.118 45.8719 73.244 46.3039 73.244C46.6199 73.244 46.9139 73.17 47.1859 73.022C47.4619 72.87 47.7159 72.662 47.9479 72.398V67.922H49.0159ZM51.7233 69.14C51.9153 68.724 52.1513 68.4 52.4313 68.168C52.7113 67.932 53.0533 67.814 53.4573 67.814C53.5853 67.814 53.7073 67.828 53.8233 67.856C53.9433 67.884 54.0493 67.928 54.1413 67.988L54.0633 68.786C54.0393 68.886 53.9793 68.936 53.8833 68.936C53.8273 68.936 53.7453 68.924 53.6373 68.9C53.5293 68.876 53.4073 68.864 53.2713 68.864C53.0793 68.864 52.9073 68.892 52.7553 68.948C52.6073 69.004 52.4733 69.088 52.3533 69.2C52.2373 69.308 52.1313 69.444 52.0353 69.608C51.9433 69.768 51.8593 69.952 51.7833 70.16V74H50.7093V67.922H51.3213C51.4373 67.922 51.5173 67.944 51.5613 67.988C51.6053 68.032 51.6353 68.108 51.6513 68.216L51.7233 69.14ZM58.9023 70.298C58.9023 70.05 58.8663 69.824 58.7943 69.62C58.7263 69.412 58.6243 69.234 58.4883 69.086C58.3563 68.934 58.1943 68.818 58.0023 68.738C57.8103 68.654 57.5923 68.612 57.3483 68.612C56.8363 68.612 56.4303 68.762 56.1303 69.062C55.8343 69.358 55.6503 69.77 55.5783 70.298H58.9023ZM59.7663 73.148C59.6343 73.308 59.4763 73.448 59.2923 73.568C59.1083 73.684 58.9103 73.78 58.6983 73.856C58.4903 73.932 58.2743 73.988 58.0503 74.024C57.8263 74.064 57.6043 74.084 57.3843 74.084C56.9643 74.084 56.5763 74.014 56.2203 73.874C55.8683 73.73 55.5623 73.522 55.3023 73.25C55.0463 72.974 54.8463 72.634 54.7023 72.23C54.5583 71.826 54.4863 71.362 54.4863 70.838C54.4863 70.414 54.5503 70.018 54.6783 69.65C54.8103 69.282 54.9983 68.964 55.2423 68.696C55.4863 68.424 55.7843 68.212 56.1363 68.06C56.4883 67.904 56.8843 67.826 57.3243 67.826C57.6883 67.826 58.0243 67.888 58.3323 68.012C58.6443 68.132 58.9123 68.308 59.1363 68.54C59.3643 68.768 59.5423 69.052 59.6703 69.392C59.7983 69.728 59.8623 70.112 59.8623 70.544C59.8623 70.712 59.8443 70.824 59.8083 70.88C59.7723 70.936 59.7043 70.964 59.6043 70.964H55.5423C55.5543 71.348 55.6063 71.682 55.6983 71.966C55.7943 72.25 55.9263 72.488 56.0943 72.68C56.2623 72.868 56.4623 73.01 56.6943 73.106C56.9263 73.198 57.1863 73.244 57.4743 73.244C57.7423 73.244 57.9723 73.214 58.1643 73.154C58.3603 73.09 58.5283 73.022 58.6683 72.95C58.8083 72.878 58.9243 72.812 59.0163 72.752C59.1123 72.688 59.1943 72.656 59.2623 72.656C59.3503 72.656 59.4183 72.69 59.4663 72.758L59.7663 73.148ZM67.0344 69.86C67.3664 69.86 67.6584 69.816 67.9104 69.728C68.1664 69.64 68.3804 69.518 68.5524 69.362C68.7284 69.202 68.8604 69.012 68.9484 68.792C69.0364 68.572 69.0804 68.33 69.0804 68.066C69.0804 67.518 68.9104 67.09 68.5704 66.782C68.2344 66.474 67.7224 66.32 67.0344 66.32H65.6544V69.86H67.0344ZM67.0344 65.402C67.5784 65.402 68.0504 65.466 68.4504 65.594C68.8544 65.718 69.1884 65.896 69.4524 66.128C69.7164 66.36 69.9124 66.64 70.0404 66.968C70.1724 67.296 70.2384 67.662 70.2384 68.066C70.2384 68.466 70.1684 68.832 70.0284 69.164C69.8884 69.496 69.6824 69.782 69.4104 70.022C69.1424 70.262 68.8084 70.45 68.4084 70.586C68.0124 70.718 67.5544 70.784 67.0344 70.784H65.6544V74H64.4964V65.402H67.0344ZM72.3483 69.14C72.5403 68.724 72.7763 68.4 73.0563 68.168C73.3363 67.932 73.6783 67.814 74.0823 67.814C74.2103 67.814 74.3323 67.828 74.4483 67.856C74.5683 67.884 74.6743 67.928 74.7663 67.988L74.6883 68.786C74.6643 68.886 74.6043 68.936 74.5083 68.936C74.4523 68.936 74.3703 68.924 74.2623 68.9C74.1543 68.876 74.0323 68.864 73.8963 68.864C73.7043 68.864 73.5323 68.892 73.3803 68.948C73.2323 69.004 73.0983 69.088 72.9783 69.2C72.8623 69.308 72.7563 69.444 72.6603 69.608C72.5683 69.768 72.4843 69.952 72.4083 70.16V74H71.3343V67.922H71.9463C72.0623 67.922 72.1423 67.944 72.1863 67.988C72.2303 68.032 72.2603 68.108 72.2763 68.216L72.3483 69.14ZM78.0213 67.826C78.4653 67.826 78.8653 67.9 79.2213 68.048C79.5773 68.196 79.8813 68.406 80.1333 68.678C80.3853 68.95 80.5773 69.28 80.7093 69.668C80.8453 70.052 80.9133 70.482 80.9133 70.958C80.9133 71.438 80.8453 71.87 80.7093 72.254C80.5773 72.638 80.3853 72.966 80.1333 73.238C79.8813 73.51 79.5773 73.72 79.2213 73.868C78.8653 74.012 78.4653 74.084 78.0213 74.084C77.5733 74.084 77.1693 74.012 76.8093 73.868C76.4533 73.72 76.1493 73.51 75.8973 73.238C75.6453 72.966 75.4513 72.638 75.3153 72.254C75.1833 71.87 75.1173 71.438 75.1173 70.958C75.1173 70.482 75.1833 70.052 75.3153 69.668C75.4513 69.28 75.6453 68.95 75.8973 68.678C76.1493 68.406 76.4533 68.196 76.8093 68.048C77.1693 67.9 77.5733 67.826 78.0213 67.826ZM78.0213 73.25C78.6213 73.25 79.0693 73.05 79.3653 72.65C79.6613 72.246 79.8093 71.684 79.8093 70.964C79.8093 70.24 79.6613 69.676 79.3653 69.272C79.0693 68.868 78.6213 68.666 78.0213 68.666C77.7173 68.666 77.4513 68.718 77.2233 68.822C76.9993 68.926 76.8113 69.076 76.6593 69.272C76.5113 69.468 76.3993 69.71 76.3233 69.998C76.2513 70.282 76.2153 70.604 76.2153 70.964C76.2153 71.684 76.3633 72.246 76.6593 72.65C76.9593 73.05 77.4133 73.25 78.0213 73.25ZM86.2279 69.368C86.0279 69.1 85.8119 68.914 85.5799 68.81C85.3479 68.702 85.0879 68.648 84.7999 68.648C84.2359 68.648 83.8019 68.85 83.4979 69.254C83.1939 69.658 83.0419 70.234 83.0419 70.982C83.0419 71.378 83.0759 71.718 83.1439 72.002C83.2119 72.282 83.3119 72.514 83.4439 72.698C83.5759 72.878 83.7379 73.01 83.9299 73.094C84.1219 73.178 84.3399 73.22 84.5839 73.22C84.9359 73.22 85.2419 73.14 85.5019 72.98C85.7659 72.82 86.0079 72.594 86.2279 72.302V69.368ZM87.2959 65.162V74H86.6599C86.5079 74 86.4119 73.926 86.3719 73.778L86.2759 73.04C86.0159 73.352 85.7199 73.604 85.3879 73.796C85.0559 73.988 84.6719 74.084 84.2359 74.084C83.8879 74.084 83.5719 74.018 83.2879 73.886C83.0039 73.75 82.7619 73.552 82.5619 73.292C82.3619 73.032 82.2079 72.708 82.0999 72.32C81.9919 71.932 81.9379 71.486 81.9379 70.982C81.9379 70.534 81.9979 70.118 82.1179 69.734C82.2379 69.346 82.4099 69.01 82.6339 68.726C82.8579 68.442 83.1319 68.22 83.4559 68.06C83.7839 67.896 84.1519 67.814 84.5599 67.814C84.9319 67.814 85.2499 67.878 85.5139 68.006C85.7819 68.13 86.0199 68.304 86.2279 68.528V65.162H87.2959ZM93.9807 67.922V74H93.3447C93.1927 74 93.0967 73.926 93.0567 73.778L92.9727 73.124C92.7087 73.416 92.4127 73.652 92.0847 73.832C91.7567 74.008 91.3807 74.096 90.9567 74.096C90.6247 74.096 90.3307 74.042 90.0747 73.934C89.8227 73.822 89.6107 73.666 89.4387 73.466C89.2667 73.266 89.1367 73.024 89.0487 72.74C88.9647 72.456 88.9227 72.142 88.9227 71.798V67.922H89.9907V71.798C89.9907 72.258 90.0947 72.614 90.3027 72.866C90.5147 73.118 90.8367 73.244 91.2687 73.244C91.5847 73.244 91.8787 73.17 92.1507 73.022C92.4267 72.87 92.6807 72.662 92.9127 72.398V67.922H93.9807ZM99.9041 69.002C99.8721 69.046 99.8401 69.08 99.8081 69.104C99.7761 69.128 99.7321 69.14 99.6761 69.14C99.6161 69.14 99.5501 69.116 99.4781 69.068C99.4061 69.016 99.3161 68.96 99.2081 68.9C99.1041 68.84 98.9741 68.786 98.8181 68.738C98.6661 68.686 98.4781 68.66 98.2541 68.66C97.9541 68.66 97.6901 68.714 97.4621 68.822C97.2341 68.926 97.0421 69.078 96.8861 69.278C96.7341 69.478 96.6181 69.72 96.5381 70.004C96.4621 70.288 96.4241 70.606 96.4241 70.958C96.4241 71.326 96.4661 71.654 96.5501 71.942C96.6341 72.226 96.7521 72.466 96.9041 72.662C97.0601 72.854 97.2461 73.002 97.4621 73.106C97.6821 73.206 97.9281 73.256 98.2001 73.256C98.4601 73.256 98.6741 73.226 98.8421 73.166C99.0101 73.102 99.1481 73.032 99.2561 72.956C99.3681 72.88 99.4601 72.812 99.5321 72.752C99.6081 72.688 99.6821 72.656 99.7541 72.656C99.8421 72.656 99.9101 72.69 99.9581 72.758L100.258 73.148C100.126 73.312 99.9761 73.452 99.8081 73.568C99.6401 73.684 99.4581 73.782 99.2621 73.862C99.0701 73.938 98.8681 73.994 98.6561 74.03C98.4441 74.066 98.2281 74.084 98.0081 74.084C97.6281 74.084 97.2741 74.014 96.9461 73.874C96.6221 73.734 96.3401 73.532 96.1001 73.268C95.8601 73 95.6721 72.672 95.5361 72.284C95.4001 71.896 95.3321 71.454 95.3321 70.958C95.3321 70.506 95.3941 70.088 95.5181 69.704C95.6461 69.32 95.8301 68.99 96.0701 68.714C96.3141 68.434 96.6121 68.216 96.9641 68.06C97.3201 67.904 97.7281 67.826 98.1881 67.826C98.6161 67.826 98.9921 67.896 99.3161 68.036C99.6441 68.172 99.9341 68.366 100.186 68.618L99.9041 69.002ZM103.271 74.096C102.791 74.096 102.421 73.962 102.161 73.694C101.905 73.426 101.777 73.04 101.777 72.536V68.816H101.045C100.981 68.816 100.927 68.798 100.883 68.762C100.839 68.722 100.817 68.662 100.817 68.582V68.156L101.813 68.03L102.059 66.152C102.071 66.092 102.097 66.044 102.137 66.008C102.181 65.968 102.237 65.948 102.305 65.948H102.845V68.042H104.603V68.816H102.845V72.464C102.845 72.72 102.907 72.91 103.031 73.034C103.155 73.158 103.315 73.22 103.511 73.22C103.623 73.22 103.719 73.206 103.799 73.178C103.883 73.146 103.955 73.112 104.015 73.076C104.075 73.04 104.125 73.008 104.165 72.98C104.209 72.948 104.247 72.932 104.279 72.932C104.335 72.932 104.385 72.966 104.429 73.034L104.741 73.544C104.557 73.716 104.335 73.852 104.075 73.952C103.815 74.048 103.547 74.096 103.271 74.096ZM109.245 68.924C109.197 69.012 109.123 69.056 109.023 69.056C108.963 69.056 108.895 69.034 108.819 68.99C108.743 68.946 108.649 68.898 108.537 68.846C108.429 68.79 108.299 68.74 108.147 68.696C107.995 68.648 107.815 68.624 107.607 68.624C107.427 68.624 107.265 68.648 107.121 68.696C106.977 68.74 106.853 68.802 106.749 68.882C106.649 68.962 106.571 69.056 106.515 69.164C106.463 69.268 106.437 69.382 106.437 69.506C106.437 69.662 106.481 69.792 106.569 69.896C106.661 70 106.781 70.09 106.929 70.166C107.077 70.242 107.245 70.31 107.433 70.37C107.621 70.426 107.813 70.488 108.009 70.556C108.209 70.62 108.403 70.692 108.591 70.772C108.779 70.852 108.947 70.952 109.095 71.072C109.243 71.192 109.361 71.34 109.449 71.516C109.541 71.688 109.587 71.896 109.587 72.14C109.587 72.42 109.537 72.68 109.437 72.92C109.337 73.156 109.189 73.362 108.993 73.538C108.797 73.71 108.557 73.846 108.273 73.946C107.989 74.046 107.661 74.096 107.289 74.096C106.865 74.096 106.481 74.028 106.137 73.892C105.793 73.752 105.501 73.574 105.261 73.358L105.513 72.95C105.545 72.898 105.583 72.858 105.627 72.83C105.671 72.802 105.727 72.788 105.795 72.788C105.867 72.788 105.943 72.816 106.023 72.872C106.103 72.928 106.199 72.99 106.311 73.058C106.427 73.126 106.567 73.188 106.731 73.244C106.895 73.3 107.099 73.328 107.343 73.328C107.551 73.328 107.733 73.302 107.889 73.25C108.045 73.194 108.175 73.12 108.279 73.028C108.383 72.936 108.459 72.83 108.507 72.71C108.559 72.59 108.585 72.462 108.585 72.326C108.585 72.158 108.539 72.02 108.447 71.912C108.359 71.8 108.241 71.706 108.093 71.63C107.945 71.55 107.775 71.482 107.583 71.426C107.395 71.366 107.201 71.304 107.001 71.24C106.805 71.176 106.611 71.104 106.419 71.024C106.231 70.94 106.063 70.836 105.915 70.712C105.767 70.588 105.647 70.436 105.555 70.256C105.467 70.072 105.423 69.85 105.423 69.59C105.423 69.358 105.471 69.136 105.567 68.924C105.663 68.708 105.803 68.52 105.987 68.36C106.171 68.196 106.397 68.066 106.665 67.97C106.933 67.874 107.239 67.826 107.583 67.826C107.983 67.826 108.341 67.89 108.657 68.018C108.977 68.142 109.253 68.314 109.485 68.534L109.245 68.924Z" fill="#333333"/>
</g>
</svg>
