<svg width="111" height="57" viewBox="0 0 111 57" fill="none" xmlns="http://www.w3.org/2000/svg">
<path opacity="0.77" d="M1.26845 21.1717C9.90103 24.7921 18.705 28.1467 27.3375 31.767C28.9614 32.453 30.8027 30.7068 29.6501 29.4128C27.6868 26.788 25.6804 24.3532 23.7171 21.7284C27.2225 22.4544 29.4434 24.4336 31.8771 26.9447C32.9875 27.9342 34.4402 28.8862 36.1082 28.3939C38.7176 27.6746 39.7058 24.2928 40.6066 22.2793C42.8801 17.1506 44.4269 11.7927 47.427 6.89283C51.0267 1.30942 53.7159 4.65724 55.3774 9.10619C57.2095 13.7834 58.143 18.9917 58.4782 23.8953C58.9793 32.486 59.0089 41.6845 63.2314 49.557C65.5771 53.9307 72.4123 58.6134 77.8908 55.0465C84.6529 50.721 89.1987 41.4516 90.2779 34.231C91.1384 30.431 92.9705 4.66259 101.724 13.6425C108.129 20.2253 108.025 32.9583 108.484 41.2449C108.568 42.3473 110.449 42.3874 110.579 41.3233C111.489 32.8865 110.262 23.5728 106.852 15.549C104.934 11.2518 98.3148 5.12493 93.2619 10.2506C87.3526 16.2116 87.9799 26.2088 86.9431 33.7335C86.4234 38.4841 83.637 43.4223 81.1511 47.5245C75.8365 56.2608 67.8452 52.7551 64.9485 44.9219C61.4554 35.3018 63.0526 24.813 61.0565 14.9661C60.2917 11.4684 58.0849 -0.39282 51.3704 0.283729C43.6296 1.07336 40.792 12.1312 38.8175 17.4121C38.9889 17.1462 35.8548 26.075 34.7013 25.2753C33.5479 24.4759 32.609 23.2207 31.4984 22.2313C29.3632 20.3664 27.0553 19.2615 24.3621 18.8786C26.8868 17.5511 29.2409 15.9953 31.4242 14.2113C32.5373 13.2242 31.3853 11.4365 29.9314 11.4729C19.8817 12.146 10.9819 16.0891 1.35762 18.321C-0.139115 18.5473 -0.27028 20.5996 1.26845 21.1717ZM19.4877 18.7971C18.7174 19.2523 18.8874 19.9747 19.3572 20.3553C19.1428 20.8112 19.1421 21.3053 19.4835 21.7618C20.5932 23.2454 21.7883 24.8431 22.898 26.3267C17.5987 24.1923 12.3845 22.1719 7.08521 20.0375C12.9029 18.4095 18.593 16.3633 24.4953 15.3439C22.9118 16.4443 21.1998 17.6207 19.4877 18.7971Z" fill="#333333"/>
</svg>
