<svg width="99" height="57" viewBox="0 0 99 57" fill="none" xmlns="http://www.w3.org/2000/svg">
<path opacity="0.77" d="M1.57195 21.1717C9.24536 24.7921 17.0711 28.1467 24.7444 31.767C26.1879 32.453 27.8247 30.7068 26.8001 29.4128C25.0549 26.788 23.2715 24.3532 21.5263 21.7283C24.6422 22.4544 26.6163 24.4336 28.7796 26.9447C29.7666 27.9342 31.0579 28.8862 32.5406 28.3939C34.8601 27.6746 35.7385 24.2928 36.5392 22.2793C38.5601 17.1505 39.935 11.7927 42.6018 6.89283C45.8015 1.30942 48.1919 4.65724 49.6688 9.10619C51.2974 13.7834 52.1271 18.9917 52.425 23.8953C52.8705 32.486 52.8968 41.6845 56.6501 49.557C58.7352 53.9307 64.8109 58.6134 69.6807 55.0465C75.6914 50.721 79.7322 41.4516 80.6914 34.231C81.4563 30.431 83.0849 4.66258 90.8656 13.6425C96.5588 20.2253 96.467 32.9583 96.8747 41.2449C96.9494 42.3473 98.6217 42.3874 98.7371 41.3233C99.5458 32.8865 98.4551 23.5728 95.4243 15.549C93.7192 11.2518 87.8354 5.12493 83.3439 10.2506C78.0912 16.2116 78.6488 26.2088 77.7272 33.7335C77.2652 38.4841 74.7884 43.4223 72.5788 47.5245C67.8547 56.2608 60.7513 52.7551 58.1764 44.9219C55.0714 35.3018 56.4912 24.813 54.7169 14.9661C54.037 11.4684 52.0755 -0.392827 46.107 0.283719C39.2263 1.07335 36.704 12.1312 34.9489 17.4121C35.1012 17.1462 32.3154 26.075 31.29 25.2753C30.2648 24.4759 29.4302 23.2207 28.443 22.2313C26.5451 20.3664 24.4936 19.2615 22.0996 18.8786C24.3439 17.5511 26.4363 15.9953 28.377 14.2112C29.3665 13.2242 28.3425 11.4365 27.0501 11.4729C18.117 12.1459 10.2061 16.0891 1.65122 18.321C0.320789 18.5473 0.204206 20.5996 1.57195 21.1717ZM17.7668 18.7971C17.0821 19.2523 17.2332 19.9747 17.6509 20.3553C17.4603 20.8112 17.4596 21.3053 17.7631 21.7618C18.7495 23.2454 19.8118 24.8431 20.7982 26.3267C16.0877 24.1923 11.4529 22.1718 6.74241 20.0374C11.9137 18.4095 16.9715 16.3633 22.2181 15.3439C20.8105 16.4442 19.2887 17.6207 17.7668 18.7971Z" fill="white"/>
</svg>
